<?xml version="1.0" encoding="utf-8"?>
<!-- Generator: Adobe Illustrator 23.0.5, SVG Export Plug-In . SVG Version: 6.00 Build 0)  -->
<svg version="1.1" id="Layer_1" xmlns="http://www.w3.org/2000/svg" xmlns:xlink="http://www.w3.org/1999/xlink" x="0px" y="0px"
	 viewBox="0 0 139 20" style="enable-background:new 0 0 139 20;" xml:space="preserve">
<style type="text/css">
	.st0{fill:none;}
	.st1{fill-rule:evenodd;clip-rule:evenodd;fill:url(#SVGID_1_);}
	.st2{opacity:0.5;fill-rule:evenodd;clip-rule:evenodd;fill:url(#SVGID_2_);enable-background:new    ;}
	.st3{opacity:0.15;fill-rule:evenodd;clip-rule:evenodd;fill:url(#SVGID_3_);enable-background:new    ;}
	.st4{fill:#FFFFFF;}
</style>
<g>
	<path class="st0" d="M0,0"/>
	<g>
		
			<linearGradient id="SVGID_1_" gradientUnits="userSpaceOnUse" x1="-575.7264" y1="376.0482" x2="-576.2733" y2="375.0482" gradientTransform="matrix(16.789 0 0 -19.704 9678.6563 7410.0801)">
			<stop  offset="0" style="stop-color:#33D35E"/>
			<stop  offset="1" style="stop-color:#2AB6D9"/>
		</linearGradient>
		<path class="st1" d="M10.8,0L0,19.7h6L16.8,0H10.8z"/>
		
			<linearGradient id="SVGID_2_" gradientUnits="userSpaceOnUse" x1="-575.7264" y1="376.0482" x2="-576.2733" y2="375.0482" gradientTransform="matrix(16.789 0 0 -19.704 9686.0244 7410.0801)">
			<stop  offset="0" style="stop-color:#33D35E"/>
			<stop  offset="1" style="stop-color:#2AB6D9"/>
		</linearGradient>
		<path class="st2" d="M18.2,0L7.4,19.7h6L24.2,0H18.2z"/>
		
			<linearGradient id="SVGID_3_" gradientUnits="userSpaceOnUse" x1="-575.7242" y1="376.0482" x2="-576.2711" y2="375.0482" gradientTransform="matrix(16.788 0 0 -19.704 9692.7803 7410.0801)">
			<stop  offset="0" style="stop-color:#33D35E"/>
			<stop  offset="1" style="stop-color:#2AB6D9"/>
		</linearGradient>
		<path class="st3" d="M25.5,0L14.7,19.7h6L31.5,0H25.5z"/>
	</g>
</g>
<g>
	<g>
		<path class="st4" d="M34.4,10.3c0-3.1,2.5-5,5.2-5c3.1,0,4.7,2,4.7,4.6c0,0.5-0.1,1-0.1,1.2h-6.6c0.3,1.4,1.4,2,2.8,2
			c0.8,0,1.6-0.2,2.4-0.6l1.1,1.7c-1.1,0.7-2.6,1.1-3.9,1.1C36.8,15.3,34.4,13.4,34.4,10.3z M41.5,9.3c0-1-0.5-1.8-1.8-1.8
			c-1,0-1.9,0.6-2.1,1.8H41.5z"/>
		<path class="st4" d="M46,12.4c0-2,1.8-3.1,6.2-3.5c-0.1-0.8-0.5-1.4-1.7-1.4c-0.9,0-1.8,0.3-2.9,0.9l-1.2-1.8
			c1.4-0.7,3-1.2,4.7-1.2c2.8,0,4.4,1.4,4.4,4.3V15h-2.7l-0.2-1h-0.1c-0.9,0.7-2,1.2-3.2,1.2C47.3,15.3,46,14,46,12.4z M52.2,12.3
			v-1.7c-2.3,0.3-3.1,0.8-3.1,1.6c0,0.6,0.5,0.9,1.3,0.9C51.1,13.1,51.6,12.8,52.2,12.3z"/>
		<path class="st4" d="M57.2,13.9l1.5-1.8c1,0.6,1.9,1,2.8,1c1,0,1.4-0.3,1.4-0.8c0-0.6-1.1-0.9-2.2-1.3c-1.3-0.5-2.9-1.2-2.9-2.8
			c0-1.8,1.7-3,4.2-3c1.7,0,2.9,0.6,3.9,1.2l-1.5,1.7c-0.8-0.5-1.6-0.8-2.3-0.8c-0.8,0-1.3,0.3-1.3,0.8c0,0.6,1,0.8,2.2,1.2
			c1.4,0.4,3,1.1,3,2.9c0,1.7-1.6,3.1-4.5,3.1C60,15.3,58.3,14.7,57.2,13.9z"/>
		<path class="st4" d="M67.6,18.6l0.6-2.1c0.2,0,0.5,0.1,0.7,0.1c1.1,0,1.6-0.5,1.9-1.2l0.2-0.5l-4.2-9.2h3.3l1.6,4.1
			c0.3,0.9,0.6,1.8,0.9,2.7h0.1c0.2-0.9,0.5-1.8,0.8-2.7l1.3-4.1h3.1L74,15.1c-1,2.4-2.2,3.6-4.8,3.6C68.5,18.8,68.1,18.7,67.6,18.6
			z"/>
		<path class="st4" d="M82.4,14L82.4,14l-0.4,1h-2.5V1.6h3.3v3.3l-0.1,1.5c0.8-0.6,1.9-1,2.9-1c2.7,0,4.3,1.9,4.3,4.8
			c0,3.3-2.2,5.1-4.6,5.1C84.3,15.3,83.3,14.8,82.4,14z M86.6,10.2c0-1.7-0.6-2.6-1.9-2.6c-0.7,0-1.3,0.3-1.9,0.9v3.9
			c0.6,0.4,1.2,0.6,1.8,0.6C85.7,13,86.6,12.1,86.6,10.2z"/>
		<path class="st4" d="M91.7,12.4c0-2,1.8-3.1,6.2-3.5c-0.1-0.8-0.5-1.4-1.7-1.4c-0.9,0-1.8,0.3-2.9,0.9l-1.2-1.8
			c1.4-0.7,3-1.2,4.7-1.2c2.8,0,4.4,1.4,4.4,4.3V15h-2.7l-0.2-1h-0.1c-0.9,0.7-2,1.2-3.2,1.2C93,15.3,91.7,14,91.7,12.4z M97.9,12.3
			v-1.7c-2.3,0.3-3.1,0.8-3.1,1.6c0,0.6,0.5,0.9,1.3,0.9C96.8,13.1,97.3,12.8,97.9,12.3z"/>
		<path class="st4" d="M103.9,5.6h2.7l0.2,1.2h0.1c0.9-0.8,2-1.4,3.5-1.4c2.4,0,3.4,1.5,3.4,3.8V15h-3.3V9.5c0-1.4-0.4-1.8-1.4-1.8
			c-0.8,0-1.3,0.3-2,0.9V15h-3.3V5.6z"/>
		<path class="st4" d="M116.5,1.6h3.2v7.7h0.1l3.5-3.8h3.5L123,9.5l4.1,5.6h-3.5l-2.5-3.7l-1.4,1.4V15h-3.2V1.6z"/>
	</g>
</g>
</svg>
